<svg xmlns="http://www.w3.org/2000/svg" height="40" viewBox="0 -960 960 960" width="40" fill="#ffffff"><path d="M186.666-186.666h48l410.335-410.336-47.999-47.999-410.336 410.335v48Zm600.001-458.335L644.668-786.334l46.548-46.548q19.118-19.118 47.285-18.785 28.166.334 47.166 19.334L833-785q19 18.999 19.333 46.499.334 27.5-18.641 46.475l-47.025 47.025ZM153.551-120q-14.259 0-23.905-9.643T120-153.54v-94.751q0-6.708 2.333-12.541 2.334-5.834 7.667-11.167l467.335-467.335 141.999 141.999L271.999-130q-5.333 5.333-11.311 7.667Q254.709-120 248.333-120h-94.782Zm467.45-501.001-23.999-24 47.999 47.999-24-23.999Z"/></svg>